<?xml version="1.0" standalone="no"?>
<!DOCTYPE svg PUBLIC "-//W3C//DTD SVG 20010904//EN"
 "http://www.w3.org/TR/2001/REC-SVG-20010904/DTD/svg10.dtd">
<svg version="1.0" xmlns="http://www.w3.org/2000/svg"
 width="541.000000pt" height="206.000000pt" viewBox="0 0 541.000000 206.000000"
 preserveAspectRatio="xMidYMid meet">

<g transform="translate(0.000000,206.000000) scale(0.100000,-0.100000)"
fill="#000000" stroke="none">
<path d="M1313 1227 c-43 -23 -83 -65 -83 -89 1 -28 -107 -326 -145 -402 -33
-67 -45 -82 -69 -88 -67 -17 -137 51 -176 168 -12 35 -27 64 -33 64 -7 0 -34
-20 -61 -44 l-50 -43 17 -83 c9 -46 24 -91 33 -101 32 -35 113 -61 180 -57
111 7 154 59 265 321 84 197 81 192 108 193 19 2 19 1 1 -3 -24 -5 -24 2 -5
-131 8 -59 21 -152 27 -207 8 -63 17 -100 25 -100 20 0 133 116 133 136 0 11
4 18 9 15 9 -6 14 17 26 114 10 85 -27 145 -52 83 -9 -23 -11 -10 -12 78 -1
99 -3 108 -31 152 -33 53 -46 56 -107 24z m70 -89 c-2 -5 6 -8 19 -9 21 0 21
-1 3 -8 -19 -8 -85 7 -85 18 0 3 15 6 34 6 19 0 32 -3 29 -7z m37 -77 c0 -4
-11 -6 -25 -3 -14 2 -25 6 -25 8 0 2 11 4 25 4 14 0 25 -4 25 -9z m87 -153
c-3 -7 -5 -2 -5 12 0 14 2 19 5 13 2 -7 2 -19 0 -25z m-70 -20 c-3 -7 -5 -2
-5 12 0 14 2 19 5 13 2 -7 2 -19 0 -25z m60 -40 c-3 -7 -5 -2 -5 12 0 14 2 19
5 13 2 -7 2 -19 0 -25z"/>
<path d="M1601 1214 c-29 -19 -50 -38 -47 -41 3 -3 24 6 46 21 60 40 65 36 62
-49 -1 -22 3 -17 13 20 15 52 12 85 -8 84 -7 0 -36 -16 -66 -35z"/>
<path d="M2640 1229 c-30 -12 -43 -31 -27 -41 7 -5 3 -8 -11 -8 -22 0 -23 -3
-21 -72 2 -74 16 -105 43 -95 7 3 19 1 27 -4 10 -6 6 -9 -16 -9 -16 0 -35 -4
-41 -8 -11 -7 -26 -282 -16 -282 24 0 85 27 93 42 9 17 12 17 49 -4 l39 -23
30 29 c16 15 35 42 42 60 7 17 17 34 21 37 5 3 12 31 15 61 10 95 -25 158 -87
158 -14 0 -31 -5 -37 -11 -21 -21 -31 1 -38 91 -8 97 -11 100 -65 79z m89
-275 c6 -15 14 -47 17 -73 l6 -46 -21 25 c-11 14 -21 33 -21 44 0 12 -5 16
-15 12 -18 -7 -19 2 -2 37 15 34 21 34 36 1z"/>
<path d="M3621 1229 c-13 -5 -34 -20 -46 -32 -22 -21 -23 -31 -27 -250 -4
-192 -2 -227 10 -222 7 3 29 5 49 5 26 0 36 5 40 19 3 11 11 22 19 25 20 8 20
144 -1 152 -12 5 -12 9 1 30 9 13 20 22 24 19 18 -11 32 -132 25 -217 -4 -48
-4 -88 0 -88 18 0 95 73 95 90 0 10 5 20 10 22 11 3 32 159 25 181 -2 6 -6 25
-9 40 -7 29 -57 67 -89 67 -10 0 -25 -7 -33 -15 -9 -8 -20 -15 -25 -15 -5 0
-9 45 -9 100 0 109 -2 112 -59 89z"/>
<path d="M1554 1160 c-34 -14 -36 -27 -4 -27 16 0 27 4 24 9 -3 4 0 8 5 8 6 0
11 5 11 10 0 12 -7 12 -36 0z"/>
<path d="M1524 1116 c-15 -12 -16 -17 -7 -27 10 -10 14 -9 19 4 3 9 16 17 28
17 17 0 18 2 6 10 -20 13 -23 12 -46 -4z"/>
<path d="M2057 1113 c-15 -14 -6 -23 22 -23 22 0 30 -6 35 -25 5 -20 13 -25
36 -25 17 0 30 -4 30 -10 0 -5 5 -10 10 -10 6 0 10 11 10 24 0 18 -7 25 -29
29 -17 4 -30 14 -34 26 -4 16 -13 21 -39 21 -19 0 -38 -3 -41 -7z"/>
<path d="M2306 1067 c-22 -7 -41 -18 -44 -26 -5 -14 11 -12 71 5 13 4 17 0 16
-23 -2 -36 -16 -94 -18 -70 0 9 -8 17 -17 17 -8 0 -12 -4 -9 -10 3 -5 -1 -10
-9 -10 -9 0 -16 4 -16 10 0 6 -10 5 -25 -2 -28 -13 -33 -33 -9 -42 10 -4 13
-2 8 6 -5 7 0 9 14 6 12 -4 22 -2 22 4 0 5 5 6 10 3 13 -8 13 -45 -1 -45 -5 0
-7 5 -4 10 3 6 -1 10 -9 10 -9 0 -16 -7 -16 -15 0 -8 -9 -15 -20 -15 -17 0
-20 -7 -20 -40 0 -54 23 -95 58 -108 24 -8 34 -6 67 19 49 37 59 36 51 -2 -6
-30 -5 -31 20 -25 15 4 39 10 55 13 22 4 29 11 29 29 0 17 4 22 15 18 14 -6
15 12 13 137 -3 131 -5 144 -21 147 -35 7 -87 -8 -87 -25 0 -13 8 -14 41 -9
31 5 40 3 37 -6 -3 -8 -25 -14 -51 -16 l-46 -3 -3 -87 c-2 -49 -7 -87 -13 -87
-5 0 -17 14 -25 30 -14 27 -16 85 -7 184 2 30 -7 33 -57 18z m21 -159 c-3 -8
-6 -5 -6 6 -1 11 2 17 5 13 3 -3 4 -12 1 -19z"/>
<path d="M3405 1061 c-27 -18 -31 -19 -47 -5 -14 13 -23 14 -51 5 -19 -7 -47
-23 -61 -36 -26 -24 -27 -25 -24 -165 l2 -140 35 6 c56 9 71 15 71 25 0 6 7
17 15 25 23 23 17 172 -6 158 -16 -9 -10 23 6 36 31 26 40 -4 40 -136 -1 -68
1 -124 3 -124 9 0 91 66 92 74 0 5 7 17 15 26 10 11 17 49 21 116 6 88 4 101
-12 121 -27 32 -63 37 -99 14z"/>
<path d="M1493 1053 c-6 -16 3 -43 15 -43 5 0 9 6 9 13 0 6 4 19 7 28 5 11 2
16 -10 16 -9 0 -18 -6 -21 -14z"/>
<path d="M1570 1056 c0 -8 5 -18 10 -21 6 -3 10 3 10 14 0 12 -4 21 -10 21 -5
0 -10 -6 -10 -14z"/>
<path d="M1775 1061 c-9 -16 -10 -15 57 -30 64 -14 106 -41 93 -60 -5 -9 -31
-12 -84 -10 -132 4 -151 2 -160 -23 -5 -13 -8 -24 -7 -24 0 -1 18 -4 38 -8 32
-6 37 -4 32 9 -3 8 -1 15 5 15 6 0 11 6 11 13 0 17 171 10 182 -7 4 -6 8 -39
8 -73 l0 -63 -47 1 c-30 1 -37 4 -20 6 28 4 38 23 13 23 -57 0 -64 -44 -8 -56
l37 -8 -40 -5 c-31 -5 -41 -11 -43 -27 -3 -21 -2 -21 51 -7 45 13 54 19 49 35
-3 12 0 18 9 16 11 -2 15 17 17 87 4 113 -9 160 -50 181 -40 21 -133 30 -143
15z"/>
<path d="M2961 1024 c-56 -63 -71 -100 -71 -172 0 -92 9 -121 38 -129 27 -6
30 -3 111 92 l33 40 -5 -73 c-3 -58 -2 -72 9 -68 7 3 31 10 53 16 30 8 41 16
41 30 0 11 5 20 10 20 13 0 13 190 0 224 -12 32 -59 56 -124 63 -52 5 -52 5
-95 -43z m69 -79 c35 -18 35 -17 13 -58 l-17 -32 -10 35 c-5 19 -16 39 -23 43
-16 10 -17 27 -3 27 6 0 24 -7 40 -15z"/>
<path d="M3947 1018 c-55 -59 -72 -88 -82 -140 -13 -68 46 -140 127 -157 49
-11 127 43 161 112 46 91 45 111 -9 210 -14 25 -19 27 -82 27 l-66 0 -49 -52z
m87 -63 c22 -21 26 -32 26 -81 l0 -57 -25 23 c-13 12 -30 39 -36 59 -7 20 -16
39 -21 42 -12 8 1 39 17 39 6 0 24 -11 39 -25z"/>
<path d="M1521 974 c0 -11 3 -14 6 -6 3 7 2 16 -1 19 -3 4 -6 -2 -5 -13z"/>
<path d="M1998 963 c7 -3 16 -2 19 1 4 3 -2 6 -13 5 -11 0 -14 -3 -6 -6z"/>
<path d="M2108 903 c-2 -21 -6 -36 -9 -33 -4 3 -17 -4 -30 -15 -12 -11 -19
-15 -16 -9 4 7 -3 12 -18 12 -14 0 -25 -6 -25 -14 0 -9 17 -14 53 -17 l52 -3
-52 -2 c-29 -1 -53 -4 -53 -7 0 -20 35 -67 60 -80 41 -21 42 -20 69 30 13 25
28 45 32 45 15 0 10 38 -5 43 -8 3 -20 24 -27 46 -15 51 -27 52 -31 4z"/>
<path d="M1770 880 l0 -50 -50 25 -50 25 0 -44 c0 -76 10 -106 38 -113 21 -5
31 1 59 33 37 43 61 80 45 70 -5 -3 -12 16 -16 44 -9 67 -26 74 -26 10z"/>
<path d="M1900 925 c0 -10 29 -24 34 -17 3 6 -3 12 -14 15 -11 3 -20 4 -20 2z"/>
<path d="M1868 873 c7 -3 16 -2 19 1 4 3 -2 6 -13 5 -11 0 -14 -3 -6 -6z"/>
<path d="M2430 565 c-7 -8 -10 -18 -8 -21 3 -3 -3 -33 -13 -67 -22 -73 -21
-67 -10 -67 5 0 12 13 16 30 5 23 13 31 40 36 48 9 78 39 65 64 -6 11 -21 20
-33 20 -13 0 -28 5 -33 10 -8 8 -15 6 -24 -5z m77 -31 c6 -17 -8 -31 -45 -40
-30 -8 -35 -2 -23 30 12 30 57 37 68 10z"/>
<path d="M2804 541 c-4 -20 -14 -31 -30 -35 -28 -7 -59 -50 -50 -71 4 -10 17
-14 41 -13 27 2 35 7 35 23 0 11 7 44 14 73 8 29 10 52 5 52 -5 0 -12 -13 -15
-29z m-14 -63 c0 -14 -30 -48 -42 -48 -12 0 -10 34 4 48 15 15 38 16 38 0z"/>
<path d="M3480 557 c0 -29 -31 -117 -40 -112 -5 3 -16 28 -25 56 -9 27 -22 48
-28 46 -18 -6 -54 -127 -38 -127 5 0 14 23 21 50 7 28 15 50 18 50 4 0 14 -21
22 -48 21 -65 44 -67 63 -5 24 75 28 103 17 103 -5 0 -10 -6 -10 -13z"/>
<path d="M3641 538 c0 -9 -7 -23 -15 -30 -16 -17 -9 -77 10 -85 15 -6 44 13
44 28 0 5 -9 4 -20 -3 -24 -15 -34 -6 -25 21 4 14 15 21 31 21 13 0 24 5 24
11 0 6 -9 9 -19 6 -15 -4 -21 1 -24 22 -2 14 -5 18 -6 9z"/>
<path d="M4030 540 c0 -5 5 -10 10 -10 6 0 10 5 10 10 0 6 -4 10 -10 10 -5 0
-10 -4 -10 -10z"/>
<path d="M2980 525 c0 -9 -6 -18 -13 -21 -10 -3 -12 -16 -8 -42 8 -46 42 -57
62 -20 9 19 9 21 -2 11 -21 -21 -41 -16 -37 9 2 13 11 24 23 26 11 2 25 9 30
14 7 7 1 8 -19 4 -25 -6 -28 -5 -23 13 3 12 1 21 -4 21 -5 0 -9 -7 -9 -15z"/>
<path d="M2905 491 c-7 -33 -40 -68 -49 -52 -3 5 -1 22 4 37 6 15 8 29 5 32
-9 10 -17 -6 -22 -46 -6 -47 9 -62 38 -36 11 10 19 12 19 6 0 -7 4 -12 9 -12
11 0 19 90 9 96 -3 2 -9 -9 -13 -25z"/>
<path d="M3785 504 c-11 -36 -30 -67 -44 -72 -10 -3 -12 5 -6 39 8 50 -9 44
-19 -7 -9 -42 16 -65 43 -40 15 13 20 14 23 4 3 -7 8 9 12 35 8 49 1 76 -9 41z"/>
<path d="M2540 495 c0 -7 -2 -28 -5 -46 l-6 -34 18 35 c11 20 28 37 43 40 30
7 16 18 -22 18 -16 0 -28 -6 -28 -13z"/>
<path d="M2631 484 c-25 -32 -26 -47 -6 -64 30 -25 92 45 70 79 -11 19 -43 12
-64 -15z m39 -40 c-7 -7 -19 -14 -26 -14 -22 0 -16 37 9 55 21 15 22 14 25 -5
2 -12 -2 -28 -8 -36z"/>
<path d="M3071 484 c-25 -32 -26 -47 -6 -64 30 -25 92 45 70 79 -11 19 -43 12
-64 -15z m39 -40 c-7 -7 -19 -14 -26 -14 -22 0 -16 37 9 55 21 15 22 14 25 -5
2 -12 -2 -28 -8 -36z"/>
<path d="M3183 503 c-19 -7 -16 -40 5 -48 15 -6 14 -8 -8 -20 -23 -13 -24 -14
-4 -15 12 0 28 7 35 16 11 14 11 18 -4 29 -23 16 -21 24 6 35 20 8 20 9 2 9
-11 -1 -26 -3 -32 -6z"/>
<path d="M3520 483 c-28 -36 -22 -57 17 -59 27 -1 32 2 37 28 3 17 6 37 6 44
0 24 -37 15 -60 -13z m37 -16 c-16 -25 -37 -34 -37 -16 0 18 31 50 42 43 5 -3
3 -15 -5 -27z"/>
<path d="M3836 501 c-2 -3 -6 -23 -10 -43 -8 -46 6 -50 19 -6 7 22 18 34 35
39 18 4 21 8 10 12 -19 7 -50 6 -54 -2z"/>
<path d="M3930 490 c-11 -11 -20 -31 -20 -45 0 -21 4 -24 30 -22 25 2 32 8 40
37 6 19 10 38 10 43 0 15 -41 6 -60 -13z m30 -29 c-11 -21 -40 -29 -40 -11 0
6 10 20 22 32 24 24 36 11 18 -21z"/>
<path d="M4074 493 c-16 -16 -15 -18 5 -32 l23 -14 -24 -13 -23 -13 22 -1 c13
0 27 9 33 21 10 17 8 21 -9 26 -27 7 -27 17 2 31 16 8 18 11 5 11 -9 1 -24 -7
-34 -16z"/>
<path d="M4012 461 c-14 -46 -15 -58 -3 -45 13 13 31 84 22 84 -4 0 -13 -17
-19 -39z"/>
</g>
</svg>
